<?xml version="1.0" encoding="UTF-8"?>
<svg version="1.1" xmlns="http://www.w3.org/2000/svg" width="256" height="256">
<path d="M0 0 C11.83594958 0.44663961 21.12429162 7.60369395 29 16 C31.51269996 19.22868436 33.81849552 22.53993164 36 26 C40.37013394 25.37803337 43.70848813 23.74733421 47.625 21.75 C76.79725657 7.60819322 113.07680992 7.65259335 143.63037109 17.17578125 C150.35079494 19.51331998 156.68388987 22.75112166 163 26 C164.99955097 27.00089757 166.99938004 28.00124089 169 29 C169.66 28.13375 170.32 27.2675 171 26.375 C177.70378084 18.36823078 187.60482487 12.46358061 198 11 C201.34172888 10.85637268 204.65806386 10.87673186 208 11 C209.10546875 12.6640625 209.10546875 12.6640625 210 15 C209.42578125 17.5859375 209.42578125 17.5859375 208.3125 20.375 C207.93222656 21.33792969 207.55195313 22.30085938 207.16015625 23.29296875 C205.88325894 26.27239581 204.54102236 29.14910863 203 32 C203.68707031 31.57847656 204.37414062 31.15695313 205.08203125 30.72265625 C205.98308594 30.17480469 206.88414062 29.62695312 207.8125 29.0625 C208.70582031 28.51722656 209.59914062 27.97195312 210.51953125 27.41015625 C214.81087446 24.97051074 218.13225086 24.90815568 223 25 C223.64896801 40.21469454 222.11725542 51.86363567 212 64 C210.85066931 65.12220056 209.68571376 66.22881277 208.5 67.3125 C207.675 68.199375 206.85 69.08625 206 70 C206.28594719 74.39740415 208.35293884 78.18778715 210.1875 82.125 C219.99510287 104.01633843 225.38856739 128.09633892 227 152 C227.07234863 153.06782715 227.14469727 154.1356543 227.21923828 155.23583984 C227.44526349 158.82293446 227.63520119 162.41018347 227.8125 166 C227.87791992 167.1341333 227.94333984 168.2682666 228.01074219 169.43676758 C228.345364 177.72354245 227.71450502 184.85330215 223.08984375 191.91796875 C195.25736021 221.26583252 148.47466547 226.70907372 110 228 C109.30390625 228.02336426 108.6078125 228.04672852 107.890625 228.07080078 C68.20975715 229.18029873 16.10336902 225.06257068 -15.36328125 197.96484375 C-21.45127385 192.18848515 -25.73110483 186.2841027 -26.16796875 177.69921875 C-26.56182694 143.96012746 -22.81768507 99.94045327 -3.140625 71.29296875 C-1.71349891 69.03349037 -1.71349891 69.03349037 -2.578125 66.50390625 C-4.11937356 63.78978446 -5.83282005 61.40085331 -7.75 58.9375 C-16.45235825 47.19722759 -21.38858919 35.71099557 -20 21 C-19.24201375 18.39305308 -18.30784858 16.3977224 -17 14 C-9.78912941 14.36978824 -3.83085502 18.87776008 1 24 C0.67 22.96875 0.34 21.9375 0 20.875 C-1.51786142 14.88967411 -2.81954393 5.63908785 0 0 Z M2 25 C2.33 25.99 2.66 26.98 3 28 C3 27.01 3 26.02 3 25 C2.67 25 2.34 25 2 25 Z M4 28 C5 30 5 30 5 30 Z M6 31 C7 33 7 33 7 33 Z " fill="#6E4F44" transform="translate(27,11)"/>
<path d="M0 0 C2.37134807 0.89305617 4.68554784 1.8668798 7.00317383 2.89111328 C7.83349121 3.25301758 8.66380859 3.61492187 9.51928711 3.98779297 C27.21212857 11.83828183 42.601241 22.53311212 50.21801758 40.96142578 C53.69067383 50.12745983 53.69067383 50.12745983 53.69067383 54.26611328 C54.47571289 54.19650391 55.26075195 54.12689453 56.06958008 54.05517578 C65.71889371 53.55791054 65.71889371 53.55791054 69.94067383 57.26611328 C70.88630834 58.23876592 71.81496203 59.23005989 72.69067383 60.26611328 C72.80282227 59.14076172 72.80282227 59.14076172 72.91723633 57.99267578 C74.13749443 48.49380389 76.93757685 40.90642487 84.62817383 34.82861328 C91.01276269 30.28755751 96.79984607 28.70161955 104.50317383 28.76611328 C105.295625 28.7718335 106.08807617 28.77755371 106.90454102 28.78344727 C114.4136132 29.01185718 119.87335981 30.82480878 125.51489258 35.91064453 C131.2174502 42.02743152 133.26171708 48.43700165 133.19067383 56.64111328 C133.18640381 57.38844727 133.18213379 58.13578125 133.17773438 58.90576172 C132.939121 66.65268643 130.31274679 71.2300288 125.31567383 77.01611328 C124.01629883 78.12986328 124.01629883 78.12986328 122.69067383 79.26611328 C122.17762695 79.70826172 121.66458008 80.15041016 121.13598633 80.60595703 C115.17682316 85.34307983 108.25423564 86.7659015 100.71801758 86.51220703 C92.58436406 85.52488493 84.10791344 81.52627199 78.93286133 75.07470703 C78.52293945 74.47787109 78.11301758 73.88103516 77.69067383 73.26611328 C77.36067383 74.91611328 77.03067383 76.56611328 76.69067383 78.26611328 C70.75515347 80.85615853 65.58957973 81.5673859 59.19067383 81.57861328 C58.14182007 81.58634766 58.14182007 81.58634766 57.07177734 81.59423828 C51.75334268 81.524983 46.83540789 80.5801265 41.69067383 79.26611328 C41.81217253 99.92327533 42.45432732 119.9206784 56.69067383 136.26611328 C59.5967136 135.95475188 60.6264824 135.3323107 62.69067383 133.20361328 C71.23875953 120.64861241 73.50826638 105.99736353 75.69067383 91.26611328 C76.15602539 91.68570313 76.62137695 92.10529297 77.10083008 92.53759766 C84.97381047 99.58233307 92.71004449 103.66753276 103.50317383 103.51611328 C104.2123999 103.50789551 104.92162598 103.49967773 105.65234375 103.49121094 C117.23830634 103.24444705 128.27560192 99.68118519 136.69067383 91.26611328 C145.98519409 79.03270872 147.95853392 66.38481362 146.69067383 51.26611328 C144.79468696 41.15799049 139.88532111 33.1081041 131.62817383 26.95361328 C121.67904996 20.87923323 109.25884301 18.27433805 97.85083008 20.92626953 C88.80003506 23.85857479 81.06788068 29.25118574 74.69067383 36.26611328 C77.91123033 25.09935959 87.50630501 15.61499828 97.53833008 10.06298828 C108.29217244 4.42347328 117.54898406 1.85683572 129.75317383 1.57861328 C130.80311523 1.51222656 131.85305664 1.44583984 132.93481445 1.37744141 C140.48484417 1.23014693 140.48484417 1.23014693 143.90039062 4.16455078 C145.70738181 6.45770358 147.22815038 8.74151924 148.69067383 11.26611328 C149.40936646 12.42494019 149.40936646 12.42494019 150.14257812 13.60717773 C165.15676359 38.32228919 163.06977035 71.23768279 156.69067383 98.26611328 C154.52781157 107.08393632 151.90931656 115.19527772 147.69067383 123.26611328 C146.74450195 123.27545898 145.79833008 123.28480469 144.82348633 123.29443359 C141.2296251 123.33505325 137.63655722 123.40098704 134.04321289 123.47363281 C132.50360496 123.50143395 130.96386512 123.52284589 129.42407227 123.53710938 C101.43362388 123.81152554 83.47915228 135.10546059 64.29614258 154.55786133 C63.09075858 155.79047292 61.89014163 157.02774382 60.69067383 158.26611328 C56.79823116 156.66710514 54.30743618 154.11750784 51.31567383 151.20361328 C41.85149744 142.28974814 31.08458825 135.39236141 18.69067383 131.26611328 C17.54469727 130.87423828 16.3987207 130.48236328 15.21801758 130.07861328 C8.10071747 127.93025323 1.59938903 127.16045551 -5.86010742 127.37158203 C-6.52651245 127.38922104 -7.19291748 127.40686005 -7.8795166 127.42503357 C-11.25800632 127.52310944 -14.60446915 127.68684865 -17.97680664 127.94067383 C-27.14622026 128.33195739 -27.14622026 128.33195739 -30.42016602 125.33178711 C-32.06797235 122.70176195 -33.22474022 120.1716096 -34.30932617 117.26611328 C-34.62925537 116.48526367 -34.94918457 115.70441406 -35.27880859 114.89990234 C-36.12999016 112.68784676 -36.85961987 110.46771975 -37.55932617 108.20361328 C-37.80166992 107.465625 -38.04401367 106.72763672 -38.29370117 105.96728516 C-42.37585997 93.26600303 -43.5284509 81.04493063 -43.60449219 67.73925781 C-43.61596029 66.35113286 -43.63632977 64.96305019 -43.66601562 63.57519531 C-44.12238473 42.11309974 -36.84373383 23.20928088 -22.30932617 7.26611328 C-14.80568469 -0.44919651 -10.44127677 -3.31816027 0 0 Z " fill="#F0A15A" transform="translate(67.309326171875,64.73388671875)"/>
<path d="M0 0 C2.67958868 1.62658738 5.04553142 3.47165538 7.4453125 5.484375 C8.1053125 5.154375 8.7653125 4.824375 9.4453125 4.484375 C15.07364067 12.43215829 21.4453125 22.40853764 21.4453125 32.484375 C22.23035156 32.41476563 23.01539062 32.34515625 23.82421875 32.2734375 C33.47353238 31.77617226 33.47353238 31.77617226 37.6953125 35.484375 C38.64094701 36.45702764 39.5696007 37.44832161 40.4453125 38.484375 C40.55746094 37.35902344 40.55746094 37.35902344 40.671875 36.2109375 C41.8921331 26.71206561 44.69221552 19.12468659 52.3828125 13.046875 C58.76740136 8.50581923 64.55448474 6.91988126 72.2578125 6.984375 C73.05026367 6.99009521 73.84271484 6.99581543 74.65917969 7.00170898 C82.16825187 7.2301189 87.62799848 9.0430705 93.26953125 14.12890625 C98.97208887 20.24569324 101.01635575 26.65526337 100.9453125 34.859375 C100.94104248 35.60670898 100.93677246 36.35404297 100.93237305 37.12402344 C100.69375967 44.87094815 98.06738546 49.44829052 93.0703125 55.234375 C92.2040625 55.976875 91.3378125 56.719375 90.4453125 57.484375 C89.93226563 57.92652344 89.41921875 58.36867187 88.890625 58.82421875 C82.93146183 63.56134154 76.00887431 64.98416322 68.47265625 64.73046875 C60.33900273 63.74314665 51.86255211 59.74453371 46.6875 53.29296875 C46.27757812 52.69613281 45.86765625 52.09929687 45.4453125 51.484375 C45.1153125 53.134375 44.7853125 54.784375 44.4453125 56.484375 C33.57078263 61.2296244 20.72503191 60.76574792 9.4453125 57.484375 C9.4453125 62.764375 9.4453125 68.044375 9.4453125 73.484375 C-1.50753925 79.88758064 -11.84426324 82.57411837 -24.5859375 79.83203125 C-37.70809923 75.43912366 -47.47721009 67.69599049 -53.8671875 55.484375 C-58.53912808 45.4801929 -60.72209376 34.84612982 -57.8671875 23.83203125 C-56.91697021 21.57922442 -55.831372 19.56843319 -54.5546875 17.484375 C-54.13058594 16.72640625 -53.70648438 15.9684375 -53.26953125 15.1875 C-42.24594985 -3.11348751 -19.00190917 -8.97466264 0 0 Z " fill="#D0815F" transform="translate(99.5546875,86.515625)"/>
<path d="M0 0 C8.45629547 5.7224794 14.91280921 13.30365615 17.484375 23.3359375 C19.61947708 38.08755189 17.92090798 51.72121344 9.60546875 64.28125 C3.06838214 72.68872116 -7.74562832 77.61076221 -18.0859375 79.3046875 C-29.97100464 80.21591937 -40.08093328 79.31619795 -49.7734375 71.6171875 C-52.0859375 69.3046875 -52.0859375 69.3046875 -53.0859375 67.3046875 C-53.22841919 68.14894287 -53.22841919 68.14894287 -53.3737793 69.01025391 C-58.88382162 101.10257162 -58.88382162 101.10257162 -70.0859375 112.3046875 C-72.5770306 112.08916033 -73.78084054 111.58949668 -75.61328125 109.87890625 C-85.19492228 97.0591483 -88.61813147 82.35821209 -88.2734375 66.6171875 C-88.25990234 65.42673828 -88.24636719 64.23628906 -88.23242188 63.00976562 C-88.19745578 60.10758012 -88.14838446 57.20638941 -88.0859375 54.3046875 C-86.77625 54.46582031 -85.4665625 54.62695312 -84.1171875 54.79296875 C-79.59407223 55.2928827 -75.13447767 55.49638019 -70.5859375 55.4921875 C-69.85125244 55.49283203 -69.11656738 55.49347656 -68.35961914 55.49414062 C-63.0201364 55.44216911 -58.23383224 54.80225688 -53.0859375 53.3046875 C-53.0859375 50.9946875 -53.0859375 48.6846875 -53.0859375 46.3046875 C-50.95326479 48.43736021 -48.85445639 50.56188874 -46.8359375 52.8046875 C-40.56102192 58.50915621 -33.6817222 60.62315116 -25.25390625 60.44921875 C-17.39718947 59.92543763 -10.9533399 57.72075126 -5.0859375 52.3046875 C1.73801911 42.97718287 3.1452117 34.65036418 1.9140625 23.3046875 C0.01314103 16.65146236 -3.35489397 12.08717623 -9.0859375 8.3046875 C-17.93618936 3.83021072 -28.22189669 3.58145484 -37.71484375 6.37109375 C-45.83346311 10.10017173 -49.71764746 14.97643328 -53.8984375 22.6171875 C-55.46527096 27.48261771 -55.81930059 32.22019743 -56.0859375 37.3046875 C-58.69999479 35.52504251 -61.01587112 33.70639242 -63.0859375 31.3046875 C-63.60806301 24.77811857 -59.89775304 18.07723094 -57.0859375 12.3046875 C-56.4259375 11.6446875 -55.7659375 10.9846875 -55.0859375 10.3046875 C-54.4259375 9.5828125 -53.7659375 8.8609375 -53.0859375 8.1171875 C-38.17083246 -6.62347187 -18.71741491 -10.28273174 0 0 Z " fill="#D08160" transform="translate(197.0859375,89.6953125)"/>
<path d="M0 0 C5.76183178 4.51173021 10.12850935 10.16179476 11.29858398 17.56298828 C11.45337526 19.6939398 11.49896891 21.78937277 11.48046875 23.92578125 C11.47619873 24.67311523 11.47192871 25.42044922 11.4675293 26.19042969 C11.22891592 33.9373544 8.60254171 38.51469677 3.60546875 44.30078125 C2.30609375 45.41453125 2.30609375 45.41453125 0.98046875 46.55078125 C0.46742188 46.99292969 -0.045625 47.43507812 -0.57421875 47.890625 C-6.53338192 52.62774779 -13.45596944 54.05056947 -20.9921875 53.796875 C-29.691662 52.74086943 -37.82023648 48.42361176 -43.39453125 41.67578125 C-47.40015632 33.97265612 -49.34763104 27.36849298 -48.01953125 18.55078125 C-45.44915737 11.02195563 -41.81722384 4.82766284 -35.01953125 0.55078125 C-34.42140625 0.14085938 -33.82328125 -0.2690625 -33.20703125 -0.69140625 C-23.89323084 -5.96680101 -9.04114379 -5.52427891 0 0 Z " fill="#FBF8F8" transform="translate(189.01953125,97.44921875)"/>
<path d="M0 0 C7.49152124 5.70377185 13.94517901 12.01181097 15.40625 21.69140625 C15.70691045 30.89913244 13.19474697 38.22053073 7.06640625 45.203125 C0.43190385 51.35911553 -5.92296478 53.62819479 -14.94921875 53.3359375 C-25.43672552 52.18110321 -32.99586769 46.17778189 -39.515625 38.12890625 C-43.54880475 31.52528447 -42.85167637 23.0025651 -41.59765625 15.63671875 C-39.59119851 9.09278143 -34.4896823 3.29700607 -28.83984375 -0.421875 C-19.16875771 -5.41107079 -9.53882277 -5.46737403 0 0 Z " fill="#FAF7F6" transform="translate(97,94)"/>
<path d="M0 0 C1.96259766 0.24363281 1.96259766 0.24363281 3.96484375 0.4921875 C8.51488435 0.99606599 12.98815572 1.15029591 17.5625 1.125 C18.26568359 1.12886719 18.96886719 1.13273438 19.69335938 1.13671875 C24.54082392 1.12779977 29.20036775 0.68026284 34 0 C34.72043157 17.81066938 33.4928766 40.52440137 21.296875 54.6875 C20.20192525 55.79564191 19.10156558 56.89843442 18 58 C15.5089069 57.78447283 14.30509696 57.28480918 12.47265625 55.57421875 C2.89101522 42.7544608 -0.53219397 28.05352459 -0.1875 12.3125 C-0.17396484 11.12205078 -0.16042969 9.93160156 -0.14648438 8.70507812 C-0.11151828 5.80289262 -0.06244696 2.90170191 0 0 Z " fill="#31302F" transform="translate(109,144)"/>
<path d="M0 0 C3.9267802 3.9267802 5.36961331 7.50918609 5.625 13 C5.41833138 18.96643313 3.80765024 24.31514278 -0.2734375 28.7890625 C-5.92471554 33.69448659 -10.35668747 34.70088484 -17.69921875 34.56640625 C-23.12900092 33.90556702 -27.54229948 31.70994502 -31.21875 27.625 C-35.27883663 21.82487625 -35.467328 16.02577529 -34.8125 9.1875 C-33.25437543 3.60265592 -30.35061998 0.28692135 -25.59375 -2.90234375 C-17.1217582 -7.2312343 -7.60046524 -4.8980776 0 0 Z " fill="#343535" transform="translate(99.8125,102.8125)"/>
<path d="M0 0 C3.67625019 3.49851799 6.62108266 7.43133933 7.37109375 12.515625 C7.53778139 19.37923368 6.55091726 23.77355596 2 29 C-1.92189005 32.93169477 -5.43540873 35.11846237 -11.0625 35.3125 C-17.09394412 35.22394699 -23.05969079 33.56933562 -27.671875 29.5390625 C-32.41302602 24.04490515 -33.41696608 19.77065379 -33.23828125 12.6796875 C-32.64090092 5.96160703 -28.86412966 2.63285305 -24.03515625 -1.58203125 C-16.95420603 -6.51559158 -6.65165652 -4.82948781 0 0 Z " fill="#343636" transform="translate(183,106)"/>
<path d="M0 0 C5.00907905 2.36179375 8.10064845 6.81461531 10.35546875 11.765625 C11.52163509 15.80833498 11.30699884 19.83846016 11 24 C-0.67425698 29.09422123 -14.16548241 28.29416621 -26 24 C-26.43804733 16.99124265 -25.01662393 11.28439612 -20.625 5.6875 C-14.48440335 -0.59930133 -8.52728939 -1.27225896 0 0 Z " fill="#FCB705" transform="translate(133,119)"/>
<path d="M0 0 C0.66 0.99 1.32 1.98 2 3 C0.35 4.98 -1.3 6.96 -3 9 C-3.33 8.34 -3.66 7.68 -4 7 C-3.22265625 5.2734375 -3.22265625 5.2734375 -2.0625 3.375 C-1.381875 2.26125 -0.70125 1.1475 0 0 Z " fill="#DC9358" transform="translate(146,92)"/>
</svg>
